<svg width="18" height="22" viewBox="0 0 18 22" fill="none" xmlns="http://www.w3.org/2000/svg">
<path fill-rule="evenodd" clip-rule="evenodd" d="M9.00059 0C13.7193 0 17.6515 4.0047 17.6515 8.81047C17.6515 10.3789 17.1222 11.9257 16.3824 13.3272C15.6397 14.7341 14.6565 16.0478 13.6798 17.1662C12.7012 18.2867 11.7123 19.2302 10.9419 19.8967C10.5571 20.2296 10.2203 20.4991 9.96064 20.6899C9.83241 20.7842 9.71226 20.867 9.60854 20.9304C9.55807 20.9612 9.49656 20.9968 9.43115 21.0276C9.39859 21.0428 9.35175 21.0633 9.29586 21.0815C9.25191 21.0958 9.14203 21.1293 9.00059 21.1293C8.85789 21.1293 8.74715 21.0952 8.70305 21.0808C8.64687 21.0622 8.59986 21.0415 8.56724 21.0261C8.5017 20.995 8.44014 20.9592 8.38969 20.9281C8.28601 20.8641 8.16591 20.7805 8.03775 20.6855C7.77825 20.4934 7.44157 20.2221 7.05697 19.887C6.28695 19.2164 5.2986 18.2681 4.32046 17.1445C3.34427 16.0232 2.36161 14.7084 1.61915 13.3047C0.879872 11.9071 0.349609 10.3666 0.349609 8.81047C0.349609 4.0047 4.28182 0 9.00059 0ZM9.00059 11.4418C7.57366 11.4418 6.41692 10.2637 6.41692 8.81047C6.41692 7.35725 7.57366 6.17917 9.00059 6.17917C10.4275 6.17917 11.5842 7.35725 11.5842 8.81047C11.5842 10.2637 10.4275 11.4418 9.00059 11.4418Z" fill="white"/>
</svg>
