<svg width="55" height="41" viewBox="0 0 55 41" fill="none" xmlns="http://www.w3.org/2000/svg">
<circle cx="30.1188" cy="20.231" r="20.231" fill="#B4ADD9" fill-opacity="0.8"/>
<path d="M20.1608 5.41151L20.5711 10.6025C30.8582 10.2925 37.3707 11.6583 40.9111 12.4214L42.5821 8.09942C42.7763 7.59707 42.5698 7.0263 42.089 6.78359C34.2368 2.81992 25.711 3.32798 20.9836 4.29732C20.4657 4.40352 20.1191 4.88446 20.1608 5.41151Z" fill="#B4ADD9" stroke="#2E333C" stroke-opacity="0.8" stroke-width="0.806566"/>
<ellipse cx="30.41" cy="16.2035" rx="23.5297" ry="5.7775" transform="rotate(4.69481 30.41 16.2035)" fill="#B4ADD9"/>
<path d="M30.8495 10.8473C37.3026 11.3773 43.079 12.4988 47.1984 13.8763C49.261 14.566 50.8867 15.3124 51.9716 16.0673C53.0841 16.8414 53.505 17.5346 53.459 18.0962C53.4128 18.6579 52.8845 19.2731 51.6605 19.8553C50.4669 20.4231 48.7414 20.8942 46.5938 21.2382C42.3049 21.9252 36.4229 22.0893 29.9698 21.5593C23.5169 21.0293 17.7411 19.9079 13.6218 18.5304C11.5592 17.8407 9.93355 17.0943 8.84859 16.3394C7.73602 15.5653 7.31511 14.8721 7.36123 14.3105C7.40744 13.7489 7.93583 13.1336 9.15968 12.5514C10.3532 11.9837 12.079 11.5125 14.2264 11.1685C18.5152 10.4815 24.3966 10.3174 30.8495 10.8473Z" stroke="#2E333C" stroke-opacity="0.8" stroke-width="0.806566"/>
<path d="M7.58618 14.9148C7.58618 14.9148 24.9699 11.7859 53.202 18.3872" stroke="#2E333C" stroke-opacity="0.8" stroke-width="0.806566"/>
<path d="M19.7089 20.3555C19.7089 18.3554 20.45 15.1793 20.8225 14.2131C20.8225 14.2131 24.9288 14.1782 29.0699 14.4914C33.211 14.8046 37.3521 15.5006 37.3521 15.5006C36.9843 23.9134 33.6286 32.8654 27.0643 33.7895C22.6915 34.4051 20.7477 31.0879 20.2558 29.0245C11.6599 27.8226 4.14456 29.9461 1.10913 31.5366C6.83792 22.2008 15.1681 20.902 19.7089 20.3555Z" fill="#B4ADD9" stroke="#2E333C" stroke-opacity="0.8" stroke-width="0.806566"/>
<ellipse cx="25.8627" cy="20.2313" rx="3.52182" ry="3.90659" transform="rotate(8.56559 25.8627 20.2313)" fill="#B4ADD9"/>
<path d="M26.3842 16.7671C28.0493 17.0179 29.2408 18.7425 28.9468 20.6955C28.6526 22.6486 27.0058 23.9466 25.3406 23.6957C23.6755 23.4448 22.4849 21.7195 22.7791 19.7665C23.0734 17.8137 24.7192 16.5165 26.3842 16.7671Z" stroke="#2E333C" stroke-opacity="0.8" stroke-width="0.806566"/>
<path d="M23.1034 19.4162C22.7787 19.2408 21.6994 18.9203 19.9794 19.0417" stroke="#2E333C" stroke-opacity="0.8" stroke-width="0.806566"/>
<path d="M43.7637 34.3582C38.3869 30.1871 38.6504 20.2591 39.5196 15.9686L37.3189 15.6836C35.5584 30.5103 28.3578 34.7577 25.181 33.7666L23.6431 38.7776C34.0482 41.9444 41.641 37.0725 43.7637 34.3582Z" fill="#B4ADD9" stroke="#2E333C" stroke-opacity="0.8" stroke-width="0.806566"/>
<path d="M21.0721 29.1413C30.8144 30.3786 33.1353 20.0492 33.6296 14.9804L37.2471 15.54C36.6504 29.9355 28.7671 34.5809 25.1412 33.9334C22.1469 33.3988 21.0936 30.6662 21.0721 29.1413Z" fill="#B4ADD9" stroke="#2E333C" stroke-opacity="0.8" stroke-width="0.806566"/>
</svg>
