<svg width="18" height="18" viewBox="0 0 18 18" fill="none" xmlns="http://www.w3.org/2000/svg">
<g clip-path="url(#clip0_623_11968)">
<path d="M9.83849 3.34882C10.7594 3.34882 11.5129 2.59534 11.5129 1.6744C11.5129 0.753488 10.7594 0 9.83849 0C8.91759 0 8.16406 0.753488 8.16406 1.67443C8.16406 2.59537 8.91755 3.34882 9.83849 3.34882Z" fill="#5546AA"/>
<path d="M14.4423 9.62803V7.9536C12.8935 7.9536 11.5539 7.11639 10.8004 5.90241L10.0051 4.5629C9.71209 4.06062 9.16789 3.76758 8.58185 3.76758C8.37256 3.76758 8.16323 3.80945 7.95394 3.89316L3.55859 5.69317V9.62807H5.23303V6.8234L6.69813 6.19549L4.3958 18.0001H6.15393L7.61903 11.3024L9.41905 12.9769V18.0001H11.0935V11.6792L9.37721 9.96294L9.87953 7.4513C10.9679 8.79083 12.6004 9.62803 14.4423 9.62803Z" fill="#5546AA"/>
</g>
<defs>
<clipPath id="clip0_623_11968">
<rect width="18" height="18" fill="white"/>
</clipPath>
</defs>
</svg>
