<svg width="18" height="18" viewBox="0 0 18 18" fill="none" xmlns="http://www.w3.org/2000/svg">
<path fill-rule="evenodd" clip-rule="evenodd" d="M9.00004 18C13.9706 18 18.0001 13.9707 18.0001 9.00004C18.0001 4.02945 13.9706 0 9.00004 0C4.02945 0 0 4.02945 0 9.00004C0 13.9707 4.02945 18 9.00004 18ZM9.93753 4.49979C9.93753 3.98202 9.5178 3.56229 9.00002 3.56229C8.48225 3.56229 8.06252 3.98202 8.06252 4.49979V8.99981C8.06252 9.51758 8.48225 9.93732 9.00002 9.93732H12.75C13.2678 9.93732 13.6875 9.51758 13.6875 8.99981C13.6875 8.48204 13.2678 8.06231 12.75 8.06231H9.93753V4.49979Z" fill="white"/>
</svg>
