<svg width="42" height="41" viewBox="0 0 42 41" fill="none" xmlns="http://www.w3.org/2000/svg">
<rect width="42" height="41" rx="20.5" fill="#5546AA"/>
<path d="M21 20.064C19.7781 20.064 18.7407 19.6376 17.8879 18.7848C17.0348 17.9317 16.6083 16.8942 16.6083 15.6724C16.6083 14.4505 17.0348 13.4131 17.8879 12.5603C18.7407 11.7072 19.7781 11.2807 21 11.2807C22.2218 11.2807 23.2592 11.7072 24.112 12.5603C24.9651 13.4131 25.3916 14.4505 25.3916 15.6724C25.3916 16.8942 24.9651 17.9317 24.112 18.7848C23.2592 19.6376 22.2218 20.064 21 20.064ZM11.5083 27.8504V27.1364C11.5083 26.7024 11.6377 26.2843 11.8965 25.8819C12.1552 25.4796 12.5172 25.1313 12.9823 24.8371C14.2172 24.1272 15.5151 23.5828 16.8761 23.2041C18.237 22.8254 19.6092 22.636 20.9925 22.636C22.3759 22.636 23.7505 22.8254 25.1164 23.2041C26.4823 23.5828 27.7827 24.1272 29.0176 24.8371C29.4827 25.1077 29.8447 25.4501 30.1035 25.8642C30.3622 26.2784 30.4916 26.7024 30.4916 27.1364V27.8504C30.4916 28.3698 30.3099 28.8112 29.9466 29.1746C29.583 29.5378 29.1412 29.7193 28.6213 29.7193H13.3673C12.8472 29.7193 12.4073 29.5378 12.0477 29.1746C11.6881 28.8112 11.5083 28.3698 11.5083 27.8504ZM13.35 27.8777H28.65V27.1364C28.65 26.9869 28.5961 26.8463 28.4885 26.7146C28.3806 26.5828 28.2319 26.471 28.0426 26.3792C27.0108 25.7544 25.8961 25.2813 24.6985 24.9597C23.5007 24.6383 22.2679 24.4777 21 24.4777C19.7321 24.4777 18.4992 24.6383 17.3014 24.9597C16.1038 25.2813 14.9892 25.7544 13.9574 26.3792C13.7668 26.51 13.618 26.6352 13.5108 26.7549C13.4036 26.8747 13.35 27.0018 13.35 27.1364V27.8777ZM21.0074 18.2224C21.7108 18.2224 22.3104 17.972 22.8062 17.4712C23.3021 16.9704 23.55 16.3683 23.55 15.6649C23.55 14.9616 23.2996 14.362 22.7988 13.8661C22.298 13.3703 21.6959 13.1224 20.9925 13.1224C20.2892 13.1224 19.6896 13.3729 19.1937 13.8739C18.6979 14.3747 18.45 14.9768 18.45 15.6802C18.45 16.3833 18.7004 16.9828 19.2012 17.4786C19.7019 17.9745 20.304 18.2224 21.0074 18.2224Z" fill="white"/>
</svg>
