<svg width="20" height="24" viewBox="0 0 20 24" fill="none" xmlns="http://www.w3.org/2000/svg">
<path fill-rule="evenodd" clip-rule="evenodd" d="M9.6122 0C14.8553 0 19.2244 4.36877 19.2244 9.61142C19.2244 11.3225 18.6362 13.0099 17.8142 14.5388C16.989 16.0736 15.8966 17.5067 14.8113 18.7267C13.7239 19.9492 12.6253 20.9784 11.7693 21.7055C11.3417 22.0687 10.9675 22.3626 10.6789 22.5708C10.5364 22.6736 10.4029 22.764 10.2877 22.8332C10.2316 22.8668 10.1633 22.9056 10.0906 22.9392C10.0544 22.9558 10.0024 22.9782 9.94028 22.998C9.89144 23.0136 9.76936 23.0502 9.6122 23.0502C9.45364 23.0502 9.3306 23.013 9.2816 22.9972C9.21918 22.977 9.16694 22.9544 9.1307 22.9376C9.05788 22.9036 8.98948 22.8646 8.93342 22.8306C8.81822 22.7608 8.68478 22.6696 8.54238 22.566C8.25404 22.3564 7.87996 22.0605 7.45262 21.6949C6.59704 20.9634 5.49888 19.9288 4.41206 18.7031C3.3274 17.4799 2.23556 16.0455 1.4106 14.5143C0.58918 12.9896 0 11.309 0 9.61142C0 4.36877 4.36912 0 9.6122 0ZM9.6122 12.4819C8.02672 12.4819 6.74146 11.1968 6.74146 9.61142C6.74146 8.02609 8.02672 6.74092 9.6122 6.74092C11.1977 6.74092 12.4829 8.02609 12.4829 9.61142C12.4829 11.1968 11.1977 12.4819 9.6122 12.4819Z" fill="#EB6423"/>
</svg>
