<svg width="228" height="55" viewBox="0 0 228 55" fill="none" xmlns="http://www.w3.org/2000/svg">
<g clip-path="url(#clip0_712_1525)">
<path fill-rule="evenodd" clip-rule="evenodd" d="M194.927 17.133L194.792 16.3352H176.391V22.4041H188.016C187.63 24.6075 186.608 26.393 185.076 27.6752C183.273 29.1948 180.748 30.0211 177.759 30.0211C174.771 30.0211 172.111 28.9004 170.25 27.0199C168.38 25.1393 167.262 22.4706 167.262 19.3839C167.262 16.2972 168.38 13.6094 170.241 11.7289C172.101 9.84838 174.733 8.72768 177.759 8.72768C179.465 8.72768 181.104 9.13607 182.55 9.88637C184.015 10.6462 185.297 11.7384 186.242 13.0775L186.83 13.9228L187.659 13.296L191.351 10.5132L192.103 9.94336L191.534 9.19305C189.934 7.09411 187.852 5.37506 185.452 4.18787C183.138 3.04817 180.526 2.40234 177.759 2.40234C172.795 2.40234 168.506 4.26385 165.431 7.27456C162.288 10.3612 160.428 14.6446 160.428 19.3839C160.428 24.1231 162.298 28.4065 165.44 31.4837C168.515 34.4944 172.805 36.3559 177.769 36.3559C182.733 36.3559 187.071 34.5609 190.156 31.6166C193.288 28.6249 195.139 24.4365 195.139 19.7163C195.139 19.2889 195.12 18.8615 195.091 18.4151C195.072 17.9972 195.014 17.5698 194.937 17.133H194.927Z" fill="#EB6423"/>
<path fill-rule="evenodd" clip-rule="evenodd" d="M85.0003 20.4201C85.9257 18.891 86.5233 17.039 86.5233 14.8831C86.5233 11.5684 85.1545 8.51973 82.7351 6.32581C80.4698 4.27435 77.2695 2.99219 73.4427 2.99219H62.6659V8.96611H68.6037L68.6423 8.98511H73.6258C75.5152 8.98511 77.0382 9.60245 78.1082 10.6187C79.236 11.6824 79.8529 13.202 79.8529 14.8926C79.8529 16.4596 79.1878 18.0077 78.0118 19.1284C76.9514 20.1447 75.4477 20.8 73.6162 20.8H69.8087H63.5816H62.6562V35.7206H68.8447V26.6599H72.6137C74.9561 26.6599 76.6623 27.4102 77.819 28.5025C79.2938 29.8986 79.9396 31.8456 79.9396 33.5456V35.7206H86.5233V33.5456C86.5233 31.4087 86.0992 29.2148 85.0292 27.2583C84.3063 25.9286 83.3038 24.7225 81.9446 23.7252C83.0724 22.8989 84.1713 21.7972 84.9907 20.4201H85.0003Z" fill="#EB6423"/>
<path fill-rule="evenodd" clip-rule="evenodd" d="M107.835 2.97299L106.977 0.978516L106.129 2.97299L92.6532 34.4857L92.123 35.7204H99.0441L99.2755 35.1505C101.165 30.5632 102.476 27.3531 103.555 24.7033C104.384 22.6803 105.58 19.7266 106.987 16.26C109.358 22.1484 111.431 27.1821 113.841 33.0421L114.698 35.1505L114.939 35.7204H121.861L121.321 34.4857L107.835 2.97299Z" fill="#EB6423"/>
<path d="M228 3.03906H201.289V9.03198H228V3.03906Z" fill="#EB6423"/>
<path d="M220.163 16.4121H201.289V22.405H220.163V16.4121Z" fill="#EB6423"/>
<path d="M228 29.793H201.289V35.7954H228V29.793Z" fill="#EB6423"/>
<path d="M147.801 21.2169V3.01018H154.51V36.5553L134.441 17.7218V35.9285H127.751V2.40234L147.801 21.2169Z" fill="#EB6423"/>
<path d="M1.98571 24.3046H0V30.1076H4.64618V28.588H1.98571V24.3046Z" fill="#5546AA"/>
<path d="M8.86852 24.3047H6.88281V30.1172H8.86852V24.3047Z" fill="#5546AA"/>
<path d="M11.5098 30.1077H13.5051V28.2461H15.9632V26.774H13.5051V25.7768H16.3102V24.3047H11.5098V30.1077Z" fill="#5546AA"/>
<path d="M20.5798 27.8662H23.0668V26.4606H20.5798V25.7767H23.4138V24.3046H18.623V30.1076H23.5198V28.6355H20.5798V27.8662Z" fill="#5546AA"/>
<path d="M27.5786 27.8852L27.9546 24.3047H25.6797L26.0556 27.8852H27.5786Z" fill="#5546AA"/>
<path d="M26.8165 28.2168C26.4888 28.2168 26.2285 28.3118 26.0165 28.5017C25.8044 28.6917 25.708 28.9196 25.708 29.195C25.708 29.4705 25.814 29.6984 26.0165 29.8979C26.2285 30.0973 26.4888 30.1923 26.8165 30.1923C27.1443 30.1923 27.4142 30.0973 27.6166 29.8979C27.819 29.6984 27.9251 29.4705 27.9251 29.195C27.9251 28.9196 27.819 28.6822 27.6166 28.5017C27.4142 28.3118 27.1443 28.2168 26.8165 28.2168Z" fill="#5546AA"/>
<g clip-path="url(#paint0_diamond_712_1525_clip_path)" data-figma-skip-parse="true"><g transform="matrix(0.0366744 -0.0341532 0.0500342 0.054139 7.95356 43.0242)"><rect x="0" y="0" width="1277.52" height="557.21" fill="url(#paint0_diamond_712_1525)" opacity="1" shape-rendering="crispEdges"/><rect x="0" y="0" width="1277.52" height="557.21" transform="scale(1 -1)" fill="url(#paint0_diamond_712_1525)" opacity="1" shape-rendering="crispEdges"/><rect x="0" y="0" width="1277.52" height="557.21" transform="scale(-1 1)" fill="url(#paint0_diamond_712_1525)" opacity="1" shape-rendering="crispEdges"/><rect x="0" y="0" width="1277.52" height="557.21" transform="scale(-1)" fill="url(#paint0_diamond_712_1525)" opacity="1" shape-rendering="crispEdges"/></g></g><path d="M47.4134 27.5C47.4134 38.1585 38.6316 47.0161 27.5297 47.0161C19.3783 47.0161 12.4776 42.241 9.38547 35.4839H0.883789C4.34679 46.7781 14.9663 55 27.5297 55C42.9038 55 55.3669 42.6878 55.3669 27.5C55.3669 12.3122 42.9038 0 27.5297 0C14.9663 0 4.34679 8.22188 0.883789 19.5161H9.38547C12.4776 12.759 19.3783 7.98387 27.5297 7.98387C38.6316 7.98387 47.4134 16.8415 47.4134 27.5Z" data-figma-gradient-fill="{&#34;type&#34;:&#34;GRADIENT_DIAMOND&#34;,&#34;stops&#34;:[{&#34;color&#34;:{&#34;r&#34;:0.99748831987380981,&#34;g&#34;:0.98053443431854248,&#34;b&#34;:0.97237145900726318,&#34;a&#34;:0.0},&#34;position&#34;:0.15279290080070496},{&#34;color&#34;:{&#34;r&#34;:0.92156863212585449,&#34;g&#34;:0.39215686917304993,&#34;b&#34;:0.13725490868091583,&#34;a&#34;:1.0},&#34;position&#34;:0.5201333761215210}],&#34;stopsVar&#34;:[{&#34;color&#34;:{&#34;r&#34;:0.99748831987380981,&#34;g&#34;:0.98053443431854248,&#34;b&#34;:0.97237145900726318,&#34;a&#34;:0.0},&#34;position&#34;:0.15279290080070496},{&#34;color&#34;:{&#34;r&#34;:0.92156863212585449,&#34;g&#34;:0.39215686917304993,&#34;b&#34;:0.13725490868091583,&#34;a&#34;:1.0},&#34;position&#34;:0.5201333761215210}],&#34;transform&#34;:{&#34;m00&#34;:73.348846435546875,&#34;m01&#34;:100.06838989257812,&#34;m02&#34;:-78.755058288574219,&#34;m10&#34;:-68.306457519531250,&#34;m11&#34;:108.27799987792969,&#34;m12&#34;:23.038417816162109},&#34;opacity&#34;:1.0,&#34;blendMode&#34;:&#34;NORMAL&#34;,&#34;visible&#34;:true}"/>
</g>
<defs>
<clipPath id="paint0_diamond_712_1525_clip_path"><path d="M47.4134 27.5C47.4134 38.1585 38.6316 47.0161 27.5297 47.0161C19.3783 47.0161 12.4776 42.241 9.38547 35.4839H0.883789C4.34679 46.7781 14.9663 55 27.5297 55C42.9038 55 55.3669 42.6878 55.3669 27.5C55.3669 12.3122 42.9038 0 27.5297 0C14.9663 0 4.34679 8.22188 0.883789 19.5161H9.38547C12.4776 12.759 19.3783 7.98387 27.5297 7.98387C38.6316 7.98387 47.4134 16.8415 47.4134 27.5Z"/></clipPath><linearGradient id="paint0_diamond_712_1525" x1="0" y1="0" x2="500" y2="500" gradientUnits="userSpaceOnUse">
<stop offset="0.152793" stop-color="#FEFAF8" stop-opacity="0"/>
<stop offset="0.520133" stop-color="#EB6423"/>
</linearGradient>
<clipPath id="clip0_712_1525">
<rect width="228" height="55" fill="white"/>
</clipPath>
</defs>
</svg>
