<svg width="18" height="18" viewBox="0 0 18 18" fill="none" xmlns="http://www.w3.org/2000/svg">
<path fill-rule="evenodd" clip-rule="evenodd" d="M0 3.53599C0 2.47087 0.863451 1.60742 1.92857 1.60742H16.0714C17.1365 1.60742 18 2.47087 18 3.53599V3.97564L9.49294 9.64802C9.37296 9.72517 9.1988 9.78023 8.99999 9.78023C8.80119 9.78023 8.62703 9.72517 8.50704 9.64802L0 3.97566V3.53599ZM0 5.9073V14.4646C0 15.5297 0.863451 16.3931 1.92857 16.3931H16.0714C17.1365 16.3931 18 15.5297 18 14.4646V5.90729L10.3801 10.9881L10.3727 10.9931C9.96813 11.2564 9.48231 11.3874 8.99999 11.3874C8.51768 11.3874 8.03188 11.2564 7.62733 10.993L7.61988 10.9882L0 5.9073Z" fill="white"/>
</svg>
