<svg width="38" height="38" viewBox="0 0 38 38" fill="none" xmlns="http://www.w3.org/2000/svg">
<path d="M38 19C38 29.4934 29.4934 38 19 38C8.50659 38 0 29.4934 0 19C0 8.50659 8.50659 0 19 0C29.4934 0 38 8.50659 38 19Z" fill="#D9D9D9"/>
<path d="M19 36.8125C28.8376 36.8125 36.8125 28.8376 36.8125 19C36.8125 9.16243 28.8376 1.1875 19 1.1875C9.16243 1.1875 1.1875 9.16243 1.1875 19C1.1875 28.8376 9.16243 36.8125 19 36.8125Z" fill="#F0F0F0"/>
<path d="M35.705 25.1948C36.421 23.2652 36.8125 21.1788 36.8125 19C36.8125 16.8212 36.421 14.7333 35.705 12.8036H2.29583C1.57985 14.7333 1.1875 16.8212 1.1875 19C1.1875 21.1788 1.57985 23.2652 2.29583 25.1948L19.0004 26.7437L35.705 25.1948Z" fill="#0052B4"/>
<path d="M19 36.8125C26.6587 36.8125 33.1882 31.9778 35.705 25.1948H2.29583C4.81261 31.9778 11.3413 36.8125 19 36.8125Z" fill="#D80027"/>
</svg>
