<svg width="18" height="25" viewBox="0 0 18 25" fill="none" xmlns="http://www.w3.org/2000/svg">
<path d="M11.4261 22.295C12.277 22.8448 13.291 23.0845 14.2975 22.9735C15.304 22.8627 16.2418 22.4081 16.953 21.6862L17.5748 21.0772C17.8474 20.798 18 20.4229 18 20.0325C18 19.6419 17.8474 19.2668 17.5748 18.9876L14.9357 16.3721C14.6592 16.1 14.287 15.9475 13.8994 15.9475C13.5117 15.9475 13.1396 16.1 12.8631 16.3721C12.5843 16.6451 12.2098 16.798 11.8199 16.798C11.4299 16.798 11.0555 16.6451 10.7767 16.3721L6.63149 12.2206C6.49321 12.0841 6.3834 11.9214 6.30844 11.7421C6.2335 11.5627 6.19491 11.3702 6.19491 11.1758C6.19491 10.9813 6.2335 10.7888 6.30844 10.6095C6.3834 10.4301 6.49321 10.2675 6.63149 10.131C6.90321 9.85405 7.05547 9.48133 7.05547 9.09307C7.05547 8.70483 6.90321 8.3321 6.63149 8.05518L4.00625 5.42588C3.72742 5.15286 3.35295 5 2.96294 5C2.57306 5 2.19859 5.15286 1.91976 5.42588L1.31189 6.04861C0.591112 6.76094 0.137203 7.70009 0.0264149 8.70818C-0.0842381 9.71627 0.154869 10.7318 0.70389 11.584C3.56416 15.8058 7.20344 19.4412 11.4261 22.295Z" fill="white"/>
</svg>
