<svg width="36" height="36" viewBox="0 0 36 36" fill="none" xmlns="http://www.w3.org/2000/svg">
<path d="M0 17.25C0 9.15 0 5.025 2.55 2.55C5.1 0.0750001 9.15 0 17.25 0H18.75C26.925 0 30.975 0 33.525 2.55C36 5.025 36 9.15 36 17.25V18.75C36 26.925 36 30.975 33.45 33.525C30.975 36 26.85 36 18.75 36H17.25C9.075 36 5.025 36 2.475 33.45C0 30.975 0 26.85 0 18.75V17.25Z" fill="white"/>
<path fill-rule="evenodd" clip-rule="evenodd" d="M9.87922 17.3509C15.0046 15.1179 18.4223 13.6457 20.1323 12.9344C25.0148 10.9036 26.0294 10.5509 26.6907 10.5392C26.8361 10.5367 27.1613 10.5727 27.372 10.7436C27.5498 10.888 27.5988 11.083 27.6221 11.2198C27.6456 11.3566 27.6747 11.6683 27.6515 11.9119C27.387 14.6919 26.2421 21.4383 25.6596 24.552C25.4132 25.8695 24.9279 26.3113 24.4581 26.3545C23.4372 26.4485 22.6618 25.6798 21.673 25.0315C20.1256 24.0172 19.2515 23.3858 17.7494 22.396C16.0136 21.2521 17.1388 20.6234 18.1281 19.5959C18.387 19.327 22.8855 15.2353 22.9725 14.8641C22.9834 14.8177 22.9935 14.6447 22.8907 14.5533C22.7879 14.4619 22.6362 14.4932 22.5267 14.518C22.3715 14.5533 19.8995 16.1872 15.1108 19.4197C14.4091 19.9015 13.7736 20.1363 13.2041 20.124C12.5764 20.1104 11.3689 19.769 10.4712 19.4772C9.37016 19.1193 8.49508 18.9301 8.57128 18.3222C8.61097 18.0057 9.04695 17.6819 9.87922 17.3509Z" fill="#5546AA"/>
</svg>
