<svg width="36" height="36" viewBox="0 0 36 36" fill="none" xmlns="http://www.w3.org/2000/svg">
<path d="M0 17.25C0 9.15 0 5.025 2.55 2.55C5.1 0.0750001 9.15 0 17.25 0H18.75C26.925 0 30.975 0 33.525 2.55C36 5.025 36 9.15 36 17.25V18.75C36 26.925 36 30.975 33.45 33.525C30.975 36 26.85 36 18.75 36H17.25C9.075 36 5.025 36 2.475 33.45C0 30.975 0 26.85 0 18.75V17.25Z" fill="white"/>
<path d="M19.1252 25.9492C10.9502 25.9492 6.2252 20.3242 6.0752 10.9492H10.2002C10.3502 17.8492 13.3502 20.6992 15.7502 21.2992V10.9492H19.6502V16.8742C22.0502 16.6492 24.5252 13.9492 25.3502 10.9492H29.2502C28.5752 14.6242 25.8752 17.3242 24.0002 18.4492C25.9502 19.3492 29.0252 21.6742 30.1502 25.9492H25.8752C24.9752 23.0992 22.6502 20.9242 19.6502 20.6242V25.9492H19.1252Z" fill="#5546AA"/>
</svg>
