<svg width="36" height="36" viewBox="0 0 36 36" fill="none" xmlns="http://www.w3.org/2000/svg">
<path d="M0 17.25C0 9.15 0 5.025 2.55 2.55C5.1 0.0750001 9.15 0 17.25 0H18.75C26.925 0 30.975 0 33.525 2.55C36 5.025 36 9.15 36 17.25V18.75C36 26.925 36 30.975 33.45 33.525C30.975 36 26.85 36 18.75 36H17.25C9.075 36 5.025 36 2.475 33.45C0 30.975 0 26.85 0 18.75V17.25Z" fill="white"/>
<path d="M7 16.8786C7.03515 16.7704 7.05366 16.0634 7.06411 15.9063C7.11875 15.0933 7.20748 14.283 7.33007 13.4774C7.4245 12.8572 7.47108 12.3938 7.82005 11.846C8.21843 11.2195 8.85294 10.7806 9.57962 10.6286C10.184 10.4965 11.0664 10.4276 11.687 10.3842C12.905 10.3061 14.1248 10.2574 15.3452 10.2379C17.7987 10.1841 20.2532 10.2054 22.7054 10.3018C23.4337 10.3292 24.1614 10.3721 24.888 10.4306C25.3908 10.4728 25.9049 10.5258 26.4004 10.622C26.7505 10.6899 27.0635 10.8145 27.3641 11.009C27.8404 11.3183 28.2112 11.7652 28.4273 12.2903C28.5842 12.6674 28.6203 13.0512 28.6805 13.4545C28.8011 14.2605 28.8868 15.0714 28.9373 15.8848C28.9503 16.0825 28.9605 16.2803 28.9678 16.4782C28.973 16.5944 28.9733 16.7552 29 16.866V19.1481C28.9742 19.2517 28.97 19.4871 28.9649 19.604C28.9564 19.8028 28.9455 20.0016 28.9323 20.2001C28.8832 20.9771 28.8009 21.7516 28.6857 22.5215C28.6045 23.0676 28.5612 23.5138 28.2846 24.0079C27.9187 24.6584 27.3091 25.1368 26.5901 25.3374C26.171 25.4527 25.4542 25.5228 25.0093 25.5612C24.2767 25.6246 23.5424 25.6691 22.8076 25.6949C20.0432 25.8092 17.2755 25.8244 14.5101 25.7404C13.5733 25.7194 12.6371 25.6774 11.7022 25.6144C11.0234 25.5677 10.3381 25.5094 9.66736 25.3894C9.34763 25.3322 9.05051 25.225 8.76864 25.0615C8.24207 24.755 7.83014 24.2847 7.59564 23.7224C7.43221 23.3363 7.39662 22.9523 7.33434 22.539C7.2125 21.7183 7.12361 20.8932 7.06789 20.0654C7.05206 19.8446 7.04926 19.6224 7.03553 19.4018C7.02892 19.2956 7.03002 19.126 7 19.0266V16.8786ZM15.8143 21.3397L19.4369 19.2338L20.851 18.413C21.0062 18.3227 21.4042 18.077 21.5506 18.0202C21.3535 17.8833 21.0647 17.7264 20.8513 17.6021L19.6179 16.884L15.8188 14.6679C15.7996 14.766 15.8079 15.3058 15.8079 15.4465L15.8085 17.1816L15.8085 19.9772L15.8083 20.8446C15.8084 20.9885 15.8021 21.2021 15.8143 21.3397Z" fill="#5546AA"/>
</svg>
